<svg width="2048" height="2048" viewBox="0 0 2048 2048" fill="none" xmlns="http://www.w3.org/2000/svg">
<path d="M1040 1448L1736 1448C1736 1448 1872 1448 1872 1580C1872 1712 1736 1712 1736 1712L1040 1712V1448Z" fill="#4C4B4B"/>
<path d="M1040 304L1736 304C1736 304 1872 304.001 1872 436C1872 567.999 1736 567.997 1736 567.997L1040 568V304Z" fill="#4C4B4B"/>
<path d="M196 447.998L448 1028L768 1784V1148L436 371.999C436 371.999 404 268 288 295.999C172 323.999 196 447.998 196 447.998Z" fill="#7766DC"/>
<path d="M768 256V1148V1784C768 1784 768 1912 896 1912C1024 1912 1024 1784 1024 1784V256C1024 256 1024 128 896 128C768 128 768 256 768 256Z" fill="#8472EC"/>
<path d="M320 1728C446 1728 447.998 1596 447.998 1596L448 1028L196 447.998L195.998 1596C195.998 1596 194 1728 320 1728Z" fill="#6E5DD0"/>
<path fill-rule="evenodd" clip-rule="evenodd" d="M1728 0H320C143.269 0 0 143.269 0 320V1728C0 1904.73 143.269 2048 320 2048H1728C1904.73 2048 2048 1904.73 2048 1728V320C2048 143.269 1904.73 0 1728 0ZM320 1728C446 1728 447.998 1596 447.998 1596L448 1028L768 1784C768 1784 768 1912 896 1912C1024 1912 1024 1784 1024 1784V256C1024 256 1024 128 896 128C768 128 768 256 768 256V1148L436 371.999C436 371.999 404 268 288 295.999C172 323.999 196 447.998 196 447.998L195.998 1596C195.998 1596 194 1728 320 1728ZM1040 304L1736 304C1736 304 1872 304.001 1872 436C1872 567.999 1736 567.997 1736 567.997L1040 568V304ZM1040 1448L1736 1448C1736 1448 1872 1448 1872 1580C1872 1712 1736 1712 1736 1712L1040 1712V1448ZM1622.23 872L1040 872V1136L1622.23 1136C1622.23 1136 1758.23 1136 1758.23 1004C1758.23 872.001 1622.23 872 1622.23 872Z" fill="white"/>
<path d="M1040 872L1622.23 872C1622.23 872 1758.23 872.001 1758.23 1004C1758.23 1136 1622.23 1136 1622.23 1136L1040 1136V872Z" fill="#4C4B4B"/>
</svg>
